<svg id="Layer_1" data-name="Layer 1" xmlns="http://www.w3.org/2000/svg" viewBox="0 0 871 266"><defs><style>.cls-1{fill:#828282;}.cls-2{fill:none;stroke:#828282;stroke-linecap:round;stroke-miterlimit:10;stroke-width:13px;}</style></defs><title>logo-grayscale</title><path d="M154.73,129.88H141.29v-4a2.76,2.76,0,0,1,2.13-3,38.74,38.74,0,0,1,4.59-.9,12.43,12.43,0,0,0,4.59-1.57q2.13-1.23,2.13-5.26v-10.3q0-12.32,3.47-21.06A45.09,45.09,0,0,1,167,69.29,34.5,34.5,0,0,1,191.91,58.2a56.14,56.14,0,0,1,13.33,1.46,38.87,38.87,0,0,1,10.19,3.92A22.57,22.57,0,0,1,222,69.06a10,10,0,0,1,2.35,6.16q0,1.34-1.9,2.58a22.48,22.48,0,0,1-4.26,2.13,28.61,28.61,0,0,1-4.59,1.34,18.65,18.65,0,0,1-3.14.45A5.1,5.1,0,0,1,205.8,79a38.49,38.49,0,0,0-5.94-8.74q-3.48-3.81-10.42-3.81-8.06,0-12,6.61T173.54,92v28.45H200a27.76,27.76,0,0,1-.67,6.94q-0.67,2.47-3.81,2.46h-22v68.54q0,5.83,5.15,8t16.8,3.25a2.69,2.69,0,0,1,2.46,2.91,13.79,13.79,0,0,1-.22,2c-0.15.9-.22,1.42-0.22,1.57-0.45,0-1.76-.08-3.92-0.22s-4.74-.3-7.73-0.45-6.2-.26-9.63-0.34-6.65-.11-9.63-0.11q-3.81,0-7.73.11t-7.5.34q-3.59.22-6.16,0.45c-1.72.15-2.8,0.22-3.25,0.22,0-.15-0.08-0.67-0.22-1.57a13.31,13.31,0,0,1-.22-2,2.44,2.44,0,0,1,2-2.69,27.62,27.62,0,0,0,8.06-2.58,5.57,5.57,0,0,0,3.14-5.26V129.88Z"/><path d="M303.69,209q2.46,0,2.69,4.7-5.83,4-14.78,4a23,23,0,0,1-8.59-1.46,18.26,18.26,0,0,1-6.12-3.92,17.66,17.66,0,0,1-3.86-5.6,24.28,24.28,0,0,1-1.82-6.5Q265.6,210.3,257.88,214a40.81,40.81,0,0,1-17.81,3.7,62.19,62.19,0,0,1-9.52-.78,28.89,28.89,0,0,1-9.52-3.25,20.47,20.47,0,0,1-7.39-6.94q-2.91-4.48-2.91-11.87a24.15,24.15,0,0,1,3.92-14,32,32,0,0,1,10.08-9.41,60.69,60.69,0,0,1,13.44-5.94q7.28-2.24,14-3.81,3.81-.67,7.06-1.46a53.51,53.51,0,0,0,5.71-1.68q3.13-.89,3.92-2.46t0.78-6q0-10.53-4-17.36t-14.34-6.83a20.73,20.73,0,0,0-6.5.9,10.68,10.68,0,0,0-4.48,2.8,17.11,17.11,0,0,0-3.14,5q-1.34,3.14-2.69,7.39a5.38,5.38,0,0,1-3,3.58,54.82,54.82,0,0,1-8,2.69,33.77,33.77,0,0,1-3.36.9,15.88,15.88,0,0,1-3.36.45q-2.24,0-2.24-4.7a16.09,16.09,0,0,1,3.81-9.86,38.27,38.27,0,0,1,9.74-8.74A58.48,58.48,0,0,1,241,120.14a41.18,41.18,0,0,1,13.22-2.35,68,68,0,0,1,14.14,1.34,25.94,25.94,0,0,1,10.84,4.93,22.45,22.45,0,0,1,6.92,9.63q2.38,6,2.38,15.68V187.9a79.6,79.6,0,0,0,.56,11.31,16.91,16.91,0,0,0,1.68,5.49,9,9,0,0,0,3.47,4.14,8.27,8.27,0,0,0,3.92,1,9.38,9.38,0,0,0,3.47-.45A5.19,5.19,0,0,1,303.69,209Zm-34-43.68-7.21,1.12q-5.86,1.12-11.38,2.69a35.5,35.5,0,0,0-9.8,4.37,22.1,22.1,0,0,0-6.87,7.06A19.9,19.9,0,0,0,231.78,191q0,8.52,4.39,13a14.68,14.68,0,0,0,10.93,4.48,20.13,20.13,0,0,0,8.45-1.9,21.15,21.15,0,0,0,7.21-5.37,28.68,28.68,0,0,0,5-8.18,27.11,27.11,0,0,0,1.91-10.3V165.27Z"/><path d="M360.8,126.3q-10.53,0-17.14,9.18t-6.61,24.86q0,21.73,9.74,33.82t25.87,12.1a28.36,28.36,0,0,0,12-2.24,77.36,77.36,0,0,0,8.4-4.48q0.67-.45,1.57-1a3.37,3.37,0,0,1,1.79-.56,3.61,3.61,0,0,1,2.46,1.57,14,14,0,0,1,1.79,2.46,38.92,38.92,0,0,1-5.6,5.38,45.39,45.39,0,0,1-8.06,5,49.49,49.49,0,0,1-11.09,3.81,65.34,65.34,0,0,1-14.45,1.46,49.63,49.63,0,0,1-17.36-3,40,40,0,0,1-14.34-9.07A42.89,42.89,0,0,1,320,190.47a57.38,57.38,0,0,1-3.58-21.17,49.64,49.64,0,0,1,4.37-20.95A54.18,54.18,0,0,1,332,132.12a52.59,52.59,0,0,1,15.23-10.53,39.72,39.72,0,0,1,16.46-3.81,58.3,58.3,0,0,1,15,1.79,42.55,42.55,0,0,1,11.42,4.7,23,23,0,0,1,7.28,6.83,14.7,14.7,0,0,1,2.58,8.18c0,0.9-.75,1.65-2.24,2.24a28.46,28.46,0,0,1-5,1.46,48.49,48.49,0,0,1-5.38.78q-2.58.23-3,.22a5.14,5.14,0,0,1-4.59-2.8q-1.68-2.8-3.7-6a24.41,24.41,0,0,0-5.49-6Q367.07,126.3,360.8,126.3Z"/><path d="M466.08,201.78a5,5,0,0,1,1.9-1.34,4.9,4.9,0,0,1,1.23-.22q2,0,3.58,2.91a54.71,54.71,0,0,1-12.54,10.53,27.42,27.42,0,0,1-14.34,4,35,35,0,0,1-8.51-1,14.64,14.64,0,0,1-6.94-3.92,19.94,19.94,0,0,1-4.59-8,42.34,42.34,0,0,1-1.68-13.1V129.88H410.76v-2.46a7.48,7.48,0,0,1,.56-2.91,2.27,2.27,0,0,1,2.35-1.34,15,15,0,0,0,9.86-3.14A24.42,24.42,0,0,0,429.8,112q2.69-5.38,4.7-10.08t4.48-4.7h4v23.3h26.21a18.82,18.82,0,0,1-1,7.06,3.68,3.68,0,0,1-3.7,2.35H443v55.55a79,79,0,0,0,.67,11.54,20,20,0,0,0,2,6.72,6.37,6.37,0,0,0,3.14,3,11.4,11.4,0,0,0,4,.67,15.14,15.14,0,0,0,7.06-1.68A41.12,41.12,0,0,0,466.08,201.78Z"/><path d="M480.2,167.74a49.11,49.11,0,0,1,3.92-19.49,49.47,49.47,0,0,1,26.43-26.54,48.9,48.9,0,0,1,19.6-3.92,53.54,53.54,0,0,1,20.16,3.7,47.59,47.59,0,0,1,15.79,10.19,45.36,45.36,0,0,1,10.3,15.79,54.4,54.4,0,0,1,3.7,20.27,48.9,48.9,0,0,1-3.92,19.6,49.76,49.76,0,0,1-26.43,26.43,48.92,48.92,0,0,1-19.6,3.92A53.51,53.51,0,0,1,510,214,47.49,47.49,0,0,1,494.2,203.8a45.46,45.46,0,0,1-10.3-15.68A54.13,54.13,0,0,1,480.2,167.74Zm21.06-7.39a84.42,84.42,0,0,0,1.79,17,59.65,59.65,0,0,0,5.49,15.79,35.64,35.64,0,0,0,9.52,11.65,22.08,22.08,0,0,0,14.11,4.59q12.77,0,19.82-9T559,177.37A95.5,95.5,0,0,0,557.36,160,63.54,63.54,0,0,0,552,143.43,37.41,37.41,0,0,0,542.35,131a22.21,22.21,0,0,0-14.67-4.93q-11.88,0-19.15,8.18T501.25,160.34Z"/><path class="cls-1" d="M115.3,194.17a4.7,4.7,0,0,1,3.35-1.57q2.23,0,4.24,3.81a64.84,64.84,0,0,1-6.72,7.84,43.15,43.15,0,0,1-9.07,6.83,49.6,49.6,0,0,1-12,4.82,60.27,60.27,0,0,1-15.46,1.79,49.77,49.77,0,0,1-17-2.91,38.93,38.93,0,0,1-14.22-9,44.43,44.43,0,0,1-9.86-15,55,55,0,0,1-3.7-21.06,50.39,50.39,0,0,1,4.37-21.06,54.27,54.27,0,0,1,11.31-16.46,53,53,0,0,1,15.34-10.64,39.26,39.26,0,0,1,16.24-3.81q20.83,0,30.35,12.1T122,161.46a1.19,1.19,0,0,1-1.34,1.34l-64.74,2.91a50.85,50.85,0,0,0,2.45,16.13,39,39,0,0,0,6.92,12.77A31.44,31.44,0,0,0,76.12,203a33.13,33.13,0,0,0,14.4,3,29.85,29.85,0,0,0,13.73-3.36A36.14,36.14,0,0,0,115.3,194.17Zm-36.2-68.32q-11.15,0-17.39,8.74t-6.24,22.85l42.13-2q3.34,0,3.34-2.91a32.88,32.88,0,0,0-1.34-9,29.51,29.51,0,0,0-4-8.62,22.74,22.74,0,0,0-6.8-6.5A18,18,0,0,0,79.09,125.85Z"/><path d="M796,105.33h-4.39V74.06H780.27v-4h27.1v4H796v31.27Z"/><path d="M848.87,105.33h-4.1V78.43h-0.29l-11.11,26.66h-3.71L818.55,78.43h-0.29v26.9h-4.1V70.1h5.1l12.06,29.15h0.39L843.77,70.1h5.1v35.23Z"/><path class="cls-2" d="M642,98.5c-3.42,3.36-24.52,24.82-23,58,1.32,28.88,18.88,47,23,51"/><path class="cls-2" d="M666,122c-1.85,1.79-14.1,14.05-13,33,1,16.81,11.78,27,14,29"/><path class="cls-2" d="M699,143a11.51,11.51,0,1,0,11,14A12,12,0,0,0,699,143Z"/><path class="cls-2" d="M729.67,123.67c1.89,1.78,13.92,13.49,13.33,32a43,43,0,0,1-13,29"/><path class="cls-2" d="M751.67,99.33c3.3,3.06,26,24.86,24.33,59-1.43,29.45-20,47.6-24,51.33"/></svg>