<?xml version="1.0" encoding="utf-8"?>
<svg id="svg4187" width="400" height="48" viewBox="0 0 400 48" xmlns="http://www.w3.org/2000/svg">
  <defs id="defs4189">
    <style id="bx-google-fonts">@import url(https://fonts.googleapis.com/css?family=ABeeZee:400,400italic);</style>
  </defs>
  <g transform="matrix(0.736391, 0, 0, 0.736391, 9.13897, -733.075317)" id="layer1">
    <path id="path4285" d="m 11.840569,1027.0166 -0.95357,-20.4222 10.648129,25.5079 -10.568666,17.2436 0.953563,-19.6275" style="fill:none;fill-rule:evenodd;stroke:#000000;stroke-width:1.25863981px;stroke-linecap:butt;stroke-linejoin:miter;stroke-opacity:1"/>
    <path id="use4328" d="m 11.840569,1027.0166 -0.95357,-20.4222 10.648129,25.5079 -10.568666,17.2436 0.953563,-19.6275" style="fill:none;fill-rule:evenodd;stroke:#000000;stroke-width:1.25863981px;stroke-linecap:butt;stroke-linejoin:miter;stroke-opacity:1" transform="matrix(1, 0, 0, 1, 0, 0)"/>
    <path id="use4332" d="m 11.840569,1027.0166 -0.95357,-20.4222 10.648129,25.5079 -10.568666,17.2436 0.953563,-19.6275" style="fill:none;fill-rule:evenodd;stroke:#000000;stroke-width:1.25863981px;stroke-linecap:butt;stroke-linejoin:miter;stroke-opacity:1" transform="matrix(-1, 0, 0, 1, 48.05892562866211, 1.0886460621861715e-8)"/>
    <rect y="1026.0934" x="21.334513" height="2.6615689" width="2.6615689" id="rect4338" style="fill:#808080;fill-opacity:1;stroke:#000000;stroke-width:1.62142694;stroke-opacity:0"/>
    <rect y="1022.9366" x="20.829435" height="2.6615689" width="2.6615689" id="rect4338-7" style="fill:#cccccc;fill-opacity:1;stroke:#000000;stroke-width:1.62142694;stroke-opacity:0"/>
    <rect y="1033.3539" x="22.786606" height="2.6615689" width="2.6615689" id="rect4338-4" style="fill:#4d4d4d;fill-opacity:1;stroke:#000000;stroke-width:1.62142694;stroke-opacity:0"/>
    <rect y="1026.0931" x="24.428104" height="2.6615689" width="2.6615689" id="rect4338-4-3" style="fill:#4d4d4d;fill-opacity:1;stroke:#000000;stroke-width:1.62142694;stroke-opacity:0"/>
    <rect y="1019.4642" x="18.9354" height="2.6615689" width="2.6615689" id="rect4338-4-5" style="fill:#4d4d4d;fill-opacity:1;stroke:#000000;stroke-width:1.62142694;stroke-opacity:0"/>
    <rect y="1019.6536" x="26.57468" height="2.6615689" width="2.6615689" id="rect4338-4-6" style="fill:#4d4d4d;fill-opacity:1;stroke:#000000;stroke-width:1.62142694;stroke-opacity:0"/>
    <rect y="1015.8023" x="20.640034" height="2.6615689" width="2.6615689" id="rect4338-1" style="fill:#808080;fill-opacity:1;stroke:#000000;stroke-width:1.62142694;stroke-opacity:0"/>
    <rect y="1019.7167" x="22.912876" height="2.6615689" width="2.6615689" id="rect4338-40" style="fill:#808080;fill-opacity:1;stroke:#000000;stroke-width:1.62142694;stroke-opacity:0"/>
    <rect y="1022.9997" x="24.554375" height="2.6615689" width="2.6615689" id="rect4338-3" style="fill:#808080;fill-opacity:1;stroke:#000000;stroke-width:1.62142694;stroke-opacity:0"/>
    <rect y="1016.1811" x="24.301838" height="2.6615689" width="2.6615689" id="rect4338-7-1" style="fill:#cccccc;fill-opacity:1;stroke:#000000;stroke-width:1.62142694;stroke-opacity:0"/>
    <rect y="1015.6761" x="17.1045" height="2.6615689" width="2.6615689" id="rect4338-7-2" style="fill:#cccccc;fill-opacity:1;stroke:#000000;stroke-width:1.62142694;stroke-opacity:0"/>
    <rect y="1029.8813" x="22.660339" height="2.6615689" width="2.6615689" id="rect4338-7-7" style="fill:#cccccc;fill-opacity:1;stroke:#000000;stroke-width:1.62142694;stroke-opacity:0"/>
    <rect y="1044.0234" x="24.428106" height="2.6615689" width="2.6615689" id="rect4338-4-5-7" style="fill:#4d4d4d;fill-opacity:1;stroke:#000000;stroke-width:1.62142694;stroke-opacity:0"/>
    <rect y="1036.9525" x="22.723475" height="2.6615689" width="2.6615689" id="rect4338-9" style="fill:#808080;fill-opacity:1;stroke:#000000;stroke-width:1.62142694;stroke-opacity:0"/>
    <rect y="1040.6774" x="22.723475" height="2.6615689" width="2.6615689" id="rect4338-7-8" style="fill:#cccccc;fill-opacity:1;stroke:#000000;stroke-width:1.62142694;stroke-opacity:0"/>
    <rect y="1047.4327" x="18.809132" height="2.6615689" width="2.6615689" id="rect4338-4-5-1" style="fill:#4d4d4d;fill-opacity:1;stroke:#000000;stroke-width:1.62142694;stroke-opacity:0"/>
    <rect y="1047.4958" x="26.448412" height="2.6615689" width="2.6615689" id="rect4338-0" style="fill:#808080;fill-opacity:1;stroke:#000000;stroke-width:1.62142694;stroke-opacity:0"/>
    <rect y="1047.559" x="22.660339" height="2.6615689" width="2.6615689" id="rect4338-76" style="fill:#808080;fill-opacity:1;stroke:#000000;stroke-width:1.62142694;stroke-opacity:0"/>
    <rect y="1016.3075" x="27.774237" height="2.6615689" width="2.6615689" id="rect4338-7-8-0" style="fill:#cccccc;fill-opacity:1;stroke:#000000;stroke-width:1.62142694;stroke-opacity:0"/>
    <rect y="1043.9603" x="21.081976" height="2.6615689" width="2.6615689" id="rect4338-9-1" style="fill:#808080;fill-opacity:1;stroke:#000000;stroke-width:1.62142694;stroke-opacity:0"/>
  </g>
  <text x="44.218" y="32.44" transform="matrix(0.660874, 0, 0, 0.72342, 13.879, 9.246152)" style="font-family: ABeeZee; font-size: 36px; white-space: pre;"><tspan>mike</tspan><tspan style="font-weight: bold;">meding</tspan><tspan>.com</tspan></text>
</svg>