<?xml version="1.0" encoding="UTF-8" standalone="no"?>
<svg
   xmlns:dc="http://purl.org/dc/elements/1.1/"
   xmlns:cc="http://creativecommons.org/ns#"
   xmlns:rdf="http://www.w3.org/1999/02/22-rdf-syntax-ns#"
   xmlns:svg="http://www.w3.org/2000/svg"
   xmlns="http://www.w3.org/2000/svg"
   xmlns:xlink="http://www.w3.org/1999/xlink"
   version="1.1"
   id="svg4187"
   viewBox="0 0 48 48"
   height="48"
   width="48">
  <defs
     id="defs4189" />
  <metadata
     id="metadata4192">
    <rdf:RDF>
      <cc:Work
         rdf:about="">
        <dc:format>image/svg+xml</dc:format>
        <dc:type
           rdf:resource="http://purl.org/dc/dcmitype/StillImage" />
        <dc:title></dc:title>
      </cc:Work>
    </rdf:RDF>
  </metadata>
  <g
     transform="translate(0,-1004.3622)"
     id="layer1">
    <path
       d="m 11.934914,1055.0585 c -0.187886,-0.4751 -0.371732,-0.9515 -0.554023,-1.4288 -0.178233,-0.497 -0.378828,-0.9853 -0.558941,-1.4817 -0.193965,-0.4859 -0.372937,-0.9784 -0.530753,-1.4774 -0.130921,-0.445 -0.256144,-0.893 -0.3543407,-1.3466 -0.08435,-0.4746 -0.08488,-0.9596 -0.09198,-1.4403 -0.0042,-0.5083 0.03053,-1.0181 0.08598,-1.5233 0.05441,-0.4793 0.1710017,-0.948 0.2811357,-1.4165 0.124089,-0.5456 0.30595,-1.0747 0.50896,-1.5953 0.188257,-0.4736 0.427053,-0.9223 0.716067,-1.3413 0.256755,-0.4049 0.563426,-0.7689 0.907583,-1.1011 0.338016,-0.2953 0.684422,-0.5811 1.031343,-0.8659 0.731316,-0.591 1.574917,-1.0045 2.390698,-1.4671 0.367409,-0.1647 0.757564,-0.2685 1.133335,-0.4108 0.365554,-0.1133 0.747273,-0.1699 1.109428,-0.2926 0.428619,-0.1283 0.84285,-0.3048 1.245839,-0.4985 0.369373,-0.1898 0.739783,-0.3752 1.100218,-0.5818 -2.512266,1.5098 -0.920363,0.5389 -0.391359,0.1032 0.367171,-0.3176 0.675257,-0.6895 0.951614,-1.0865 0.210854,-0.2971 0.386315,-0.616 0.556507,-0.9374 0.191489,-0.3587 0.276202,-0.7586 0.359557,-1.1531 0.101987,-0.5312 0.176674,-1.066 0.222581,-1.6049 0.03569,-0.5397 0.03937,-1.0806 0.04127,-1.6212 0.003,-0.6201 0.0033,-1.2403 0.0011,-1.8603 0.0014,-0.6725 -0.10516,-1.3363 -0.215436,-1.9973 -0.141389,-0.6524 -0.264676,-1.3089 -0.412608,-1.9597 -0.111604,-0.6032 -0.27872,-1.1945 -0.468655,-1.7771 -0.164024,-0.4945 -0.352628,-0.9801 -0.569493,-1.4537 -0.223428,-0.4641 -0.544913,-0.8721 -0.857802,-1.2782 -0.427532,-0.501 -0.828823,-1.0234 -1.239868,-1.5379 -0.425319,-0.559 -0.866773,-1.1048 -1.311211,-1.6484 -0.450602,-0.5012 -0.856648,-1.0339 -1.241983,-1.5857 -0.390187,-0.5601 -0.726469,-1.1546 -1.051761,-1.7539 -0.309722,-0.5571 -0.573693,-1.1379 -0.826924,-1.7223 -0.225509,-0.4326 -0.372616,-0.8962 -0.540773,-1.3518 -0.163348,-0.4182 -0.292348,-0.8478 -0.407894,-1.2813 -0.103649,-0.3725 -0.194848,-0.7479 -0.28499,-1.1238 -0.08646,-0.3509 -0.09588,-0.7128 -0.135762,-1.07 -0.04259,-0.2695 -0.07894,-0.5396 -0.0983,-0.8118 -0.0076,-0.1484 -4.97e-4,-0.079 -0.01888,-0.2093 0,0 1.476662,-0.7832 1.476662,-0.7832 l 0,0 c 0.02748,0.1482 0.01913,0.073 0.02462,0.2255 0.01455,0.2703 0.04459,0.539 0.08812,0.8063 0.04526,0.351 0.04034,0.7087 0.124655,1.0548 0.08719,0.3755 0.1801,0.749 0.279222,1.1215 0.1147,0.4285 0.232559,0.8566 0.400498,1.2683 0.165336,0.454 0.30503,0.9172 0.528064,1.3484 0.249155,0.5811 0.501856,1.162 0.812413,1.7136 0.320738,0.5951 0.659172,1.1802 1.043022,1.7373 0.384041,0.5472 0.790402,1.0748 1.232972,1.5765 0.446412,0.5431 0.88892,1.0891 1.311934,1.6508 0.410329,0.5173 0.823759,1.0321 1.254045,1.533 0.318143,0.4184 0.64805,0.8341 0.87753,1.3099 0.217475,0.48 0.412773,0.9699 0.57288,1.4723 0.196026,0.5864 0.357654,1.1852 0.471615,1.7932 0.149236,0.654 0.273257,1.3134 0.413931,1.9692 0.116688,0.6682 0.225399,1.3387 0.233958,2.0187 -0.0011,0.6198 0.0013,1.2394 0.003,1.859 -0.0019,0.5441 -4.17e-4,1.0886 -0.03534,1.6318 -0.03782,0.5449 -0.118413,1.0841 -0.211354,1.6221 -0.0782,0.4047 -0.151918,0.8158 -0.327622,1.1921 -0.177979,0.3235 -0.339163,0.6569 -0.557947,0.9563 -0.271116,0.4095 -0.574072,0.791 -0.933297,1.1279 -0.733873,0.6346 -1.581045,1.0905 -2.432688,1.5597 -0.361545,0.2022 -0.733898,0.3843 -1.104675,0.5686 -0.411441,0.1852 -0.829478,0.3587 -1.263828,0.4834 -0.367765,0.1007 -0.743473,0.1746 -1.104463,0.2993 -0.378659,0.1308 -0.763822,0.2483 -1.123647,0.4271 2.542792,-1.4864 0.975649,-0.6097 0.439914,-0.1877 -0.345049,0.2831 -0.684931,0.572 -1.03154,0.8532 -0.34778,0.324 -0.681405,0.6622 -0.9266,1.0741 -0.297061,0.4057 -0.538942,0.8426 -0.735216,1.3061 -0.203389,0.5138 -0.393839,1.0329 -0.517577,1.5727 -0.10628,0.4637 -0.22238,0.926 -0.28413,1.3982 -0.06663,0.4979 -0.09966,1.0035 -0.100226,1.5056 0.0062,0.4699 0.0083,0.9431 0.08549,1.4078 0.09076,0.4505 0.208198,0.8964 0.338451,1.3369 0.154425,0.4973 0.33442,0.9869 0.52745,1.4704 0.182124,0.495 0.374915,0.9856 0.557347,1.4805 0.176586,0.4725 0.355355,0.9442 0.563247,1.4042 0,0 -1.450365,0.8257 -1.450365,0.8257 z"
       id="path4201"
       style="fill:#ffffff;fill-opacity:1;stroke:#000000;stroke-width:1.25863981;stroke-opacity:0" />
    <path
       id="path4285"
       d="m 11.840569,1027.0166 -0.95357,-20.4222 10.648129,25.5079 -10.568666,17.2436 0.953563,-19.6275"
       style="fill:none;fill-rule:evenodd;stroke:#000000;stroke-width:1.25863981px;stroke-linecap:butt;stroke-linejoin:miter;stroke-opacity:1" />
    <use
       style="fill:none"
       height="100%"
       width="100%"
       id="use4328"
       xlink:href="#path4285"
       y="0"
       x="0" />
    <use
       height="100%"
       width="100%"
       id="use4332"
       transform="matrix(-1,0,0,1,48.058926,1.088646e-8)"
       xlink:href="#path4285"
       y="0"
       x="0" />
    <rect
       y="1026.0934"
       x="21.334513"
       height="2.6615689"
       width="2.6615689"
       id="rect4338"
       style="fill:#808080;fill-opacity:1;stroke:#000000;stroke-width:1.62142694;stroke-opacity:0" />
    <rect
       y="1022.9366"
       x="20.829435"
       height="2.6615689"
       width="2.6615689"
       id="rect4338-7"
       style="fill:#cccccc;fill-opacity:1;stroke:#000000;stroke-width:1.62142694;stroke-opacity:0" />
    <rect
       y="1033.3539"
       x="22.786606"
       height="2.6615689"
       width="2.6615689"
       id="rect4338-4"
       style="fill:#4d4d4d;fill-opacity:1;stroke:#000000;stroke-width:1.62142694;stroke-opacity:0" />
    <rect
       y="1026.0931"
       x="24.428104"
       height="2.6615689"
       width="2.6615689"
       id="rect4338-4-3"
       style="fill:#4d4d4d;fill-opacity:1;stroke:#000000;stroke-width:1.62142694;stroke-opacity:0" />
    <rect
       y="1019.4642"
       x="18.9354"
       height="2.6615689"
       width="2.6615689"
       id="rect4338-4-5"
       style="fill:#4d4d4d;fill-opacity:1;stroke:#000000;stroke-width:1.62142694;stroke-opacity:0" />
    <rect
       y="1019.6536"
       x="26.57468"
       height="2.6615689"
       width="2.6615689"
       id="rect4338-4-6"
       style="fill:#4d4d4d;fill-opacity:1;stroke:#000000;stroke-width:1.62142694;stroke-opacity:0" />
    <rect
       y="1015.8023"
       x="20.640034"
       height="2.6615689"
       width="2.6615689"
       id="rect4338-1"
       style="fill:#808080;fill-opacity:1;stroke:#000000;stroke-width:1.62142694;stroke-opacity:0" />
    <rect
       y="1019.7167"
       x="22.912876"
       height="2.6615689"
       width="2.6615689"
       id="rect4338-40"
       style="fill:#808080;fill-opacity:1;stroke:#000000;stroke-width:1.62142694;stroke-opacity:0" />
    <rect
       y="1022.9997"
       x="24.554375"
       height="2.6615689"
       width="2.6615689"
       id="rect4338-3"
       style="fill:#808080;fill-opacity:1;stroke:#000000;stroke-width:1.62142694;stroke-opacity:0" />
    <rect
       y="1016.1811"
       x="24.301838"
       height="2.6615689"
       width="2.6615689"
       id="rect4338-7-1"
       style="fill:#cccccc;fill-opacity:1;stroke:#000000;stroke-width:1.62142694;stroke-opacity:0" />
    <rect
       y="1015.6761"
       x="17.1045"
       height="2.6615689"
       width="2.6615689"
       id="rect4338-7-2"
       style="fill:#cccccc;fill-opacity:1;stroke:#000000;stroke-width:1.62142694;stroke-opacity:0" />
    <rect
       y="1029.8813"
       x="22.660339"
       height="2.6615689"
       width="2.6615689"
       id="rect4338-7-7"
       style="fill:#cccccc;fill-opacity:1;stroke:#000000;stroke-width:1.62142694;stroke-opacity:0" />
    <rect
       y="1044.0234"
       x="24.428106"
       height="2.6615689"
       width="2.6615689"
       id="rect4338-4-5-7"
       style="fill:#4d4d4d;fill-opacity:1;stroke:#000000;stroke-width:1.62142694;stroke-opacity:0" />
    <rect
       y="1036.9525"
       x="22.723475"
       height="2.6615689"
       width="2.6615689"
       id="rect4338-9"
       style="fill:#808080;fill-opacity:1;stroke:#000000;stroke-width:1.62142694;stroke-opacity:0" />
    <rect
       y="1040.6774"
       x="22.723475"
       height="2.6615689"
       width="2.6615689"
       id="rect4338-7-8"
       style="fill:#cccccc;fill-opacity:1;stroke:#000000;stroke-width:1.62142694;stroke-opacity:0" />
    <rect
       y="1047.4327"
       x="18.809132"
       height="2.6615689"
       width="2.6615689"
       id="rect4338-4-5-1"
       style="fill:#4d4d4d;fill-opacity:1;stroke:#000000;stroke-width:1.62142694;stroke-opacity:0" />
    <rect
       y="1047.4958"
       x="26.448412"
       height="2.6615689"
       width="2.6615689"
       id="rect4338-0"
       style="fill:#808080;fill-opacity:1;stroke:#000000;stroke-width:1.62142694;stroke-opacity:0" />
    <rect
       y="1047.559"
       x="22.660339"
       height="2.6615689"
       width="2.6615689"
       id="rect4338-76"
       style="fill:#808080;fill-opacity:1;stroke:#000000;stroke-width:1.62142694;stroke-opacity:0" />
    <rect
       y="1016.3075"
       x="27.774237"
       height="2.6615689"
       width="2.6615689"
       id="rect4338-7-8-0"
       style="fill:#cccccc;fill-opacity:1;stroke:#000000;stroke-width:1.62142694;stroke-opacity:0" />
    <rect
       y="1043.9603"
       x="21.081976"
       height="2.6615689"
       width="2.6615689"
       id="rect4338-9-1"
       style="fill:#808080;fill-opacity:1;stroke:#000000;stroke-width:1.62142694;stroke-opacity:0" />
  </g>
</svg>
